<svg width="40" height="58" viewBox="0 0 40 58" fill="none" xmlns="http://www.w3.org/2000/svg">
<ellipse cx="20" cy="54.2856" rx="7.14286" ry="2.85714" fill="#B9B9B9" fill-opacity="0.7"/>
<path fill-rule="evenodd" clip-rule="evenodd" d="M40 20C40 29.2354 33.7415 37.006 25.2353 39.3074L23.397 52.752C22.8566 56.7041 17.1434 56.7041 16.603 52.752L14.7647 39.3074C6.25848 37.006 0 29.2354 0 20C0 8.9543 8.95431 0 20 0C31.0457 0 40 8.9543 40 20Z" fill="white"/>
<path fill-rule="evenodd" clip-rule="evenodd" d="M23.9517 38.1501C32.3101 36.3388 38.5714 28.9006 38.5714 20C38.5714 9.74329 30.2567 1.42859 20 1.42859C9.7433 1.42859 1.42859 9.74329 1.42859 20C1.42859 28.9006 7.68998 36.3388 16.0483 38.1501L18.0185 52.5585C18.3337 54.8639 21.6663 54.8639 21.9816 52.5585L23.9517 38.1501Z" fill="#234164"/>
<path d="M20 27.5688C16.6113 27.5688 14.2773 25.8794 14.2773 23.438V23.4185C14.2773 21.5825 15.6445 20.2251 17.5684 19.8442V19.7856C15.918 19.3853 14.7949 18.1938 14.7949 16.6606V16.6411C14.7949 14.4536 16.9336 12.8521 20 12.8521C23.0566 12.8521 25.2051 14.4536 25.2051 16.6411V16.6606C25.2051 18.1938 24.0723 19.3755 22.4316 19.7856V19.8442C24.3457 20.2153 25.7227 21.5825 25.7227 23.4185V23.438C25.7227 25.8794 23.3887 27.5688 20 27.5688ZM20 18.897C21.3477 18.897 22.2852 18.0962 22.2852 16.9438V16.9243C22.2852 15.772 21.3379 14.981 20 14.981C18.6523 14.981 17.7051 15.772 17.7051 16.9243V16.9438C17.7051 18.0962 18.6426 18.897 20 18.897ZM20 25.4204C21.543 25.4204 22.6367 24.5122 22.6367 23.2427V23.2231C22.6367 21.9536 21.5625 21.0356 20 21.0356C18.4375 21.0356 17.3535 21.9536 17.3535 23.2231V23.2427C17.3535 24.5122 18.4473 25.4204 20 25.4204Z" fill="white"/>
</svg>
