<svg width="17" height="17" viewBox="0 0 17 17" fill="none" xmlns="http://www.w3.org/2000/svg">
<path fill-rule="evenodd" clip-rule="evenodd" d="M13.751 4.49702H11.751V3.16517C11.751 2.42599 11.1576 1.83331 10.4176 1.83331H6.41764C5.67764 1.83331 5.08431 2.42599 5.08431 3.16517V4.49702H3.08431C2.34431 4.49702 1.75098 5.08969 1.75098 5.82887V13.1541C1.75098 13.8932 2.34431 14.4859 3.08431 14.4859H13.751C14.491 14.4859 15.0843 13.8932 15.0843 13.1541V5.82887C15.0843 5.08969 14.491 4.49702 13.751 4.49702ZM6.41764 3.16516H10.4176V4.49701H6.41764V3.16516ZM13.7509 13.1541H3.08427V11.8222H13.7509V13.1541ZM13.7509 9.82442H3.08427V5.82886H5.08427V7.16071H6.4176V5.82886H10.4176V7.16071H11.7509V5.82886H13.7509V9.82442Z" fill="#32323C"/>
</svg>
