<svg xmlns="http://www.w3.org/2000/svg" xmlns:xlink="http://www.w3.org/1999/xlink" width="60" height="60" viewBox="0 0 60 60">
    <defs>
        <circle id="a" cx="29.36" cy="20.36" r="20.32"/>
    </defs>
    <g fill="none" fill-rule="evenodd">
        <path fill="#FFF" fill-rule="nonzero" d="M0 0h60.72v60.72H0z"/>
        <path fill="#0C5184" fill-rule="nonzero" d="M30.36 4A26.34 26.34 0 0 0 8.21 44.63a7.84 7.84 0 0 0 .45 5.65c2.18 4.42 8.09 5.53 8.76 5.64h.1a37.12 37.12 0 0 0 4.51.25c.82 0 1.72 0 2.67-.09A26.36 26.36 0 1 0 30.36 4z"/>
        <g transform="translate(1 10)">
            <mask id="b" fill="#fff">
                <use xlink:href="#a"/>
            </mask>
            <use fill="#DDE2E8" fill-rule="nonzero" xlink:href="#a"/>
            <circle cx="36.18" cy="11.82" r="7.47" fill="#E45827" fill-rule="nonzero" mask="url(#b)"/>
            <path fill="#7E8EA7" fill-rule="nonzero" d="M24.87 8.66h-4.41A48.16 48.16 0 0 1 0 22.46v18.2h51.78V24.21A48.07 48.07 0 0 1 24.87 8.66z" mask="url(#b)"/>
            <path fill="#FFF" fill-rule="nonzero" d="M24.87 8.66h-4.41a48.59 48.59 0 0 1-6.81 6.41c.39.192.731.469 1 .81a1.81 1.81 0 0 0 3.09 0 2 2 0 0 1 3.43 0 1.81 1.81 0 0 0 3.09 0 2 2 0 0 1 3.43 0 1.82 1.82 0 0 0 3.1 0c.25-.324.567-.59.93-.78a49 49 0 0 1-6.85-6.44z" mask="url(#b)"/>
            <path fill="#61748F" fill-rule="nonzero" d="M20.46 8.66A48.16 48.16 0 0 1 0 22.46V37A57.62 57.62 0 0 0 22.88 8.66h-2.42z" mask="url(#b)"/>
            <path fill="#BAC2CC" fill-rule="nonzero" d="M20.46 8.66l-.46.51-.15.17-.33.35-.17.19-.34.36-.23.24c-.12.12-.23.24-.35.35a3.19 3.19 0 0 1-.26.26l-.21.21c-.09.1-.19.19-.29.29l-.14.13c-.38.36-.76.72-1.15 1.07h-.05c-.86.78-1.76 1.52-2.68 2.24.391.185.733.46 1 .8a1.81 1.81 0 0 0 3.09 0 2.16 2.16 0 0 1 1.72-.95 2 2 0 0 1 .62.1 56.7 56.7 0 0 0 2.81-6.37l-2.43.05z" mask="url(#b)"/>
        </g>
        <path fill="#FFF" fill-rule="nonzero" d="M12.24 43.87c-3.77 7 5.75 8.62 5.75 8.62a33.81 33.81 0 0 0 12.89-1C36 49.88 46.59 39.65 49.72 36.56a20.59 20.59 0 0 0 .93-5.05c-1.31.09-20.52 1.38-24.93 2.15S16 36.83 12.24 43.87z"/>
        <path fill="#2A4872" fill-rule="nonzero" d="M33.05 43.71c.08 2.38-.49 4-1.48 4.77L50 35.67c.1-.37.19-.74.27-1.12L33 42.87c0 .27 0 .55.05.84zM17.29 41.28a2 2 0 0 1-.72-2.78c-2 2-2.62 3.82-1.22 4.67 2.15 1.3 8.15-.15 13.4-3.23l.5-.3c-5.09 2.13-9.92 2.88-11.96 1.64z"/>
        <path fill="#FFF" fill-rule="nonzero" d="M30.28 52.81c-12.399 0-22.45-10.051-22.45-22.45S17.881 7.91 30.28 7.91s22.45 10.051 22.45 22.45c-.011 12.394-10.056 22.439-22.45 22.45zm0-44.22c-12.023 0-21.77 9.747-21.77 21.77s9.747 21.77 21.77 21.77 21.77-9.747 21.77-21.77c-.011-12.019-9.751-21.759-21.77-21.77z"/>
    </g>
</svg>
