<svg width="25" height="25" viewBox="0 0 25 25" fill="none" xmlns="http://www.w3.org/2000/svg">
<path d="M17.8184 15.2666C18.9571 15.2666 19.8802 16.1457 19.8802 17.2302C19.8802 18.3148 18.9571 19.1939 17.8184 19.1939" stroke="#3683DB" stroke-width="0.86"/>
<path d="M13.8911 15.2666C13.168 15.2666 12.582 14.6803 12.582 13.9575C12.582 13.2344 13.168 12.6484 13.8911 12.6484" stroke="#3683DB" stroke-width="0.86"/>
<path d="M17.8279 19.1938H7.3584" stroke="#3683DB" stroke-width="0.86"/>
<path d="M17.839 15.2665H13.8643" stroke="#3683DB" stroke-width="0.86"/>
<path d="M13.8643 12.6484H18.1368" stroke="#3683DB" stroke-width="0.86"/>
<path fill-rule="evenodd" clip-rule="evenodd" d="M7.34524 8.06665C5.17402 8.06665 3.41797 9.8227 3.41797 11.9939C3.41797 14.9394 7.34524 19.2874 7.34524 19.2874C7.34524 19.2874 11.2725 14.9394 11.2725 11.9939C11.2725 9.8227 9.51646 8.06665 7.34524 8.06665ZM7.34523 13.3965C6.571 13.3965 5.94263 12.7682 5.94263 11.9939C5.94263 11.2197 6.571 10.5914 7.34523 10.5914C8.11946 10.5914 8.74783 11.2197 8.74783 11.9939C8.74783 12.7682 8.11946 13.3965 7.34523 13.3965Z" fill="#3683DB"/>
<path fill-rule="evenodd" clip-rule="evenodd" d="M18.1448 3.31299C16.3354 3.31299 14.8721 4.77636 14.8721 6.58572C14.8721 9.04026 18.1448 12.6636 18.1448 12.6636C18.1448 12.6636 21.4175 9.04026 21.4175 6.58572C21.4175 4.77636 19.9541 3.31299 18.1448 3.31299ZM18.1448 7.75461C17.4996 7.75461 16.9759 7.23098 16.9759 6.58578C16.9759 5.94059 17.4996 5.41695 18.1448 5.41695C18.79 5.41695 19.3136 5.94059 19.3136 6.58578C19.3136 7.23098 18.79 7.75461 18.1448 7.75461Z" fill="#3683DB"/>
</svg>
