<svg width="17" height="17" viewBox="0 0 17 17" fill="none" xmlns="http://www.w3.org/2000/svg">
<path fill-rule="evenodd" clip-rule="evenodd" d="M6.75098 4.16667C7.48432 4.16667 8.08432 3.56667 8.08432 2.83333C8.08432 2.1 7.48432 1.5 6.75098 1.5C6.01765 1.5 5.41765 2.1 5.41765 2.83333C5.41765 3.56667 6.01765 4.16667 6.75098 4.16667ZM11.411 9.66663V10.8333H15.0843V11.8333H11.411V13L9.75098 11.3333L11.411 9.66663ZM9.75098 13.6667H13.4243V12.5L15.0843 14.1667L13.4243 15.8333V14.6667H9.75098V13.6667ZM2.41764 15.8333L4.25098 6.43333L3.08431 6.93333V9.16667H1.75098V6.03333L5.25098 4.6C5.41764 4.53333 5.58431 4.5 5.75098 4.5C6.21764 4.5 6.65098 4.73333 6.88431 5.13333L7.51764 6.2C8.11764 7.16667 9.18431 7.83333 10.4176 7.83333V9.16667C8.95098 9.16667 7.65098 8.5 6.78431 7.43333L6.38431 9.43333L7.75098 10.8V15.8333H6.41764V11.8333L4.98431 10.5L3.81764 15.8333H2.41764Z" fill="#32323C"/>
</svg>
