<svg width="40" height="58" viewBox="0 0 40 58" fill="none" xmlns="http://www.w3.org/2000/svg">
<ellipse cx="20" cy="54.2857" rx="7.14286" ry="2.85714" fill="#B9B9B9" fill-opacity="0.7"/>
<path fill-rule="evenodd" clip-rule="evenodd" d="M40 20C40 29.2354 33.7415 37.006 25.2353 39.3074L23.397 52.752C22.8566 56.7041 17.1434 56.7041 16.603 52.752L14.7647 39.3074C6.25848 37.006 0 29.2354 0 20C0 8.9543 8.95431 0 20 0C31.0457 0 40 8.9543 40 20Z" fill="white"/>
<path fill-rule="evenodd" clip-rule="evenodd" d="M23.9517 38.1501C32.3101 36.3388 38.5714 28.9006 38.5714 20C38.5714 9.74329 30.2567 1.42859 20 1.42859C9.7433 1.42859 1.42859 9.74329 1.42859 20C1.42859 28.9006 7.68998 36.3388 16.0483 38.1501L18.0185 52.5585C18.3337 54.8639 21.6663 54.8639 21.9816 52.5585L23.9517 38.1501Z" fill="#234164"/>
<path d="M19.1021 27.2564V15.9478H18.9263L15.4692 18.3502V15.6939L19.1118 13.1646H22.0513V27.2564H19.1021Z" fill="white"/>
</svg>
