<svg width="40" height="58" viewBox="0 0 40 58" fill="none" xmlns="http://www.w3.org/2000/svg">
<ellipse cx="20" cy="54.2856" rx="7.14286" ry="2.85714" fill="#B9B9B9" fill-opacity="0.7"/>
<path fill-rule="evenodd" clip-rule="evenodd" d="M40 20C40 29.2354 33.7415 37.006 25.2353 39.3074L23.397 52.752C22.8566 56.7041 17.1434 56.7041 16.603 52.752L14.7647 39.3074C6.25848 37.006 0 29.2354 0 20C0 8.9543 8.95431 0 20 0C31.0457 0 40 8.9543 40 20Z" fill="white"/>
<path fill-rule="evenodd" clip-rule="evenodd" d="M23.9517 38.1501C32.3101 36.3388 38.5714 28.9006 38.5714 20C38.5714 9.74329 30.2567 1.42859 20 1.42859C9.7433 1.42859 1.42859 9.74329 1.42859 20C1.42859 28.9006 7.68998 36.3388 16.0483 38.1501L18.0185 52.5585C18.3337 54.8639 21.6663 54.8639 21.9816 52.5585L23.9517 38.1501Z" fill="#234164"/>
<path d="M20 27.5688C16.8164 27.5688 14.7168 25.8599 14.5215 23.3403L14.5117 23.2134H17.334L17.3438 23.3208C17.4707 24.4146 18.4766 25.1958 20 25.1958C21.5039 25.1958 22.4902 24.356 22.4902 23.1646V23.145C22.4902 21.7974 21.4844 21.0552 19.7754 21.0552H18.1641V18.9556H19.7363C21.2207 18.9556 22.1777 18.1743 22.1777 17.0317V17.0122C22.1777 15.8403 21.3672 15.1177 19.9805 15.1177C18.5938 15.1177 17.666 15.8696 17.5488 17.0415L17.5391 17.1294H14.8242L14.834 17.0122C15.0391 14.4927 17.0215 12.8521 19.9805 12.8521C23.0078 12.8521 24.9609 14.3755 24.9609 16.6216V16.6411C24.9609 18.3989 23.6719 19.5415 22.0215 19.8833V19.9419C24.1211 20.1372 25.4883 21.3481 25.4883 23.2622V23.2817C25.4883 25.8403 23.291 27.5688 20 27.5688Z" fill="white"/>
</svg>
