<svg width="40" height="58" viewBox="0 0 40 58" fill="none" xmlns="http://www.w3.org/2000/svg">
<ellipse cx="20" cy="54.2856" rx="7.14286" ry="2.85714" fill="#B9B9B9" fill-opacity="0.7"/>
<path fill-rule="evenodd" clip-rule="evenodd" d="M40 20C40 29.2354 33.7415 37.006 25.2353 39.3074L23.397 52.752C22.8566 56.7041 17.1434 56.7041 16.603 52.752L14.7647 39.3074C6.25848 37.006 0 29.2354 0 20C0 8.9543 8.95431 0 20 0C31.0457 0 40 8.9543 40 20Z" fill="white"/>
<path fill-rule="evenodd" clip-rule="evenodd" d="M23.9517 38.1501C32.3101 36.3388 38.5714 28.9006 38.5714 20C38.5714 9.74329 30.2567 1.42859 20 1.42859C9.7433 1.42859 1.42859 9.74329 1.42859 20C1.42859 28.9006 7.68998 36.3388 16.0483 38.1501L18.0185 52.5585C18.3337 54.8639 21.6663 54.8639 21.9816 52.5585L23.9517 38.1501Z" fill="#234164"/>
<path d="M20.027 27.6177C17.0094 27.6177 15.0172 25.8208 14.8512 23.4673L14.8414 23.3306H17.5172L17.5367 23.3989C17.7418 24.4341 18.7086 25.2642 20.0367 25.2642C21.5504 25.2642 22.6051 24.1997 22.6051 22.686V22.6665C22.6051 21.1626 21.5406 20.1177 20.0465 20.1177C19.3336 20.1177 18.7281 20.3228 18.2594 20.7231C17.9957 20.938 17.7614 21.2017 17.6051 21.5044H15.0758L15.7301 13.1646H24.5387V15.5083H18.025L17.6735 19.522H17.8492C18.4156 18.5747 19.5094 17.9888 20.8571 17.9888C23.484 17.9888 25.3785 19.9224 25.3785 22.6079V22.6274C25.3785 25.5962 23.191 27.6177 20.027 27.6177Z" fill="white"/>
</svg>
