<svg width="40" height="58" viewBox="0 0 40 58" fill="none" xmlns="http://www.w3.org/2000/svg">
<ellipse cx="20" cy="54.2856" rx="7.14286" ry="2.85714" fill="#B9B9B9" fill-opacity="0.7"/>
<path fill-rule="evenodd" clip-rule="evenodd" d="M40 20C40 29.2354 33.7415 37.006 25.2353 39.3074L23.397 52.752C22.8566 56.7041 17.1434 56.7041 16.603 52.752L14.7647 39.3074C6.25848 37.006 0 29.2354 0 20C0 8.9543 8.95431 0 20 0C31.0457 0 40 8.9543 40 20Z" fill="white"/>
<path fill-rule="evenodd" clip-rule="evenodd" d="M23.9517 38.1501C32.3101 36.3388 38.5714 28.9006 38.5714 20C38.5714 9.74329 30.2567 1.42859 20 1.42859C9.7433 1.42859 1.42859 9.74329 1.42859 20C1.42859 28.9006 7.68998 36.3388 16.0483 38.1501L18.0185 52.5585C18.3337 54.8639 21.6663 54.8639 21.9816 52.5585L23.9517 38.1501Z" fill="#234164"/>
<path d="M19.7051 27.6177C16.4336 27.6177 13.8848 25.3032 13.8848 20.3423V20.3228C13.8848 15.606 16.1113 12.8032 19.7148 12.8032C22.4395 12.8032 24.4707 14.4146 24.9004 16.6216L24.9199 16.7192H22.0391L22 16.6313C21.668 15.7524 20.8672 15.1567 19.7246 15.1567C17.6836 15.1567 16.7949 17.1587 16.6875 19.7173C16.6777 19.8247 16.6777 19.9321 16.6777 20.0396H16.873C17.3809 18.9458 18.5625 17.979 20.5059 17.979C23.25 17.979 25.1055 19.9321 25.1055 22.5981V22.6177C25.1055 25.4985 22.8789 27.6177 19.7051 27.6177ZM17.1172 22.6567C17.1172 24.1411 18.25 25.2837 19.6855 25.2837C21.1113 25.2837 22.2539 24.1606 22.2539 22.7153V22.6958C22.2539 21.2212 21.1797 20.147 19.7051 20.147C18.25 20.147 17.1172 21.1919 17.1172 22.647V22.6567Z" fill="white"/>
</svg>
