<svg width="85" height="84" viewBox="0 0 85 84" fill="none" xmlns="http://www.w3.org/2000/svg">
<path d="M1.6363 19.803C2.54087 19.5445 3.47093 20.1175 3.71345 21.0823L19.1861 82.6761L15.8756 83.6214L0.403882 22.0286C0.161502 21.0637 0.698607 20.0715 1.6031 19.8128L1.6363 19.803ZM75.6236 0.898743C72.9328 5.13777 71.0009 8.94239 69.8316 11.4456C69.7711 11.3787 69.6939 11.3155 69.5914 11.2571C69.4104 11.2195 69.2525 11.1372 69.0445 11.3148C68.9402 11.4035 68.6383 11.4607 68.5504 11.6009C68.5149 11.6682 68.4343 11.7128 68.3443 11.9661C68.2608 12.1802 68.3711 12.3528 68.4771 12.4515C68.4696 12.5481 68.4935 12.748 68.3961 12.7972C68.3932 12.8083 68.3516 12.9665 68.3267 13.1194C68.3204 13.1592 68.324 13.2872 68.3189 13.2728C68.3003 13.3348 68.1907 13.407 68.1949 13.4808C68.1812 13.6164 68.2695 13.7206 68.2281 13.8275C68.1927 13.8948 68.1395 13.9682 68.0474 14.0345C68.0665 14.2164 68.0311 14.2844 67.9957 14.3519C67.8951 14.5711 67.9167 14.6408 67.9283 14.9193C67.8647 15.0143 67.9642 15.0963 68.0015 15.2161C67.999 15.2728 67.8342 15.3437 67.816 15.4056C67.7624 15.5353 67.7012 15.7616 67.7535 15.9896C67.811 16.2346 67.7182 16.358 67.7105 16.4544C67.6695 16.8056 67.573 17.0997 67.607 17.39C67.6303 17.646 67.6021 17.919 67.8697 18.1741C68.0603 18.3028 68.4604 18.1967 68.5328 18.0052C68.5747 17.898 68.6299 17.6549 68.4908 17.5101C68.5364 17.4772 68.6068 17.3443 68.6197 17.3196C68.6958 17.2019 68.7321 16.8325 68.7408 16.679C68.7599 16.5605 68.6753 16.5297 68.6314 16.4495C68.7169 16.4226 68.7759 16.311 68.8209 16.3343C68.9507 16.0869 68.9325 15.8473 69.026 15.4232C69.0537 15.2845 69.0889 15.1498 69.1246 15.0189C70.9936 16.4898 76.6459 20.9411 81.6578 24.929C57.1137 27.438 35.9091 42.5124 11.3648 45.0208C9.35273 37.0107 7.34078 29.0006 5.32869 20.9905C29.8735 18.482 51.0788 3.40719 75.6236 0.898743ZM18.4302 26.2806C18.2558 26.2035 18.0855 26.2003 17.9312 26.2484C17.6912 26.3233 17.4712 26.5237 17.2857 26.7132C17.3206 26.9463 17.1773 27.0291 17.1353 27.136C17.0518 27.3502 17.1397 27.5117 17.1138 27.6702C17.1016 27.7491 17.23 27.803 17.2515 27.8714C17.2673 27.9228 17.2093 27.9788 16.9976 28.0823C16.9847 28.1615 16.9491 28.2298 16.9019 28.3196C16.8173 28.5903 16.8316 28.6993 16.6676 28.9573L16.9127 29.2005C16.8085 29.2888 16.6054 29.2404 16.5914 29.3763C16.3869 29.6847 16.5667 30.0234 16.2955 30.2396C16.2632 30.4375 16.2387 30.5397 16.1969 30.6468C16.1357 30.8728 16.1297 31.157 15.9732 31.3187C16.005 31.7225 15.9003 31.8687 15.7789 32.264C15.798 32.4458 15.7819 32.3953 15.8814 32.5335C15.9085 32.5625 15.8285 32.6066 15.6842 32.7454C15.7715 32.9058 15.6749 32.9554 15.6607 33.0911C15.5983 33.3738 15.4109 33.6209 15.5006 33.9691C15.4485 34.0418 15.4753 34.1281 15.4967 34.1966C15.5394 34.3336 15.5816 34.4708 15.3795 34.6653C15.4769 34.6172 15.568 35.2086 15.5894 35.2776C15.6801 36.1712 16.6481 36.3217 17.3531 36.5911C17.5096 36.4295 17.6128 36.3973 17.7808 36.514C18.0761 36.4971 18.204 36.3635 18.275 36.2288C18.4166 35.959 18.6532 36.1102 18.7916 36.011C18.9324 36.042 19.0235 36.0327 19.109 36.0062C19.2631 35.9581 19.34 35.8402 19.399 35.7278C19.6047 35.6637 19.6577 35.5904 19.8472 35.4749L19.8072 35.2239C19.9378 35.2211 20.1231 35.3318 20.2047 35.2318C20.4273 35.1622 20.5273 34.9992 20.689 34.8548C20.9386 34.871 21.1253 34.625 21.2701 34.4857C21.3858 34.3744 21.5458 34.343 21.651 34.1976C21.891 34.1228 21.8973 34.1396 22.1158 33.9964C22.6739 33.6156 22.7496 33.4973 22.6676 33.053C22.2843 32.9093 22.0637 32.8646 21.7476 33.0569C21.5891 33.0312 21.4507 33.1314 21.397 33.261C21.0671 33.2887 20.8545 33.3924 20.6744 33.5989C20.4251 33.5828 20.3011 33.7896 20.1929 33.805L20.1119 34.1507C20.0455 34.0585 19.8866 34.0324 19.6636 34.1019C19.2922 34.2368 19.2218 34.6162 18.8365 34.5862C18.5545 34.7681 18.1604 34.8338 17.9342 35.0735C17.5315 35.0488 17.2856 35.4078 16.9761 35.2601C16.7322 35.2608 16.878 35.008 16.7232 34.8118C16.7715 34.6652 16.684 34.5035 16.6978 34.3675C16.8425 34.2284 16.8113 34.0686 16.7633 33.9144C17.029 33.6811 16.8865 33.4621 16.9302 33.2415C17.017 33.1581 17.052 33.0903 17.0308 33.0218C16.9988 32.919 16.8761 32.8254 16.7926 32.7386C16.9426 32.6166 17.12 32.5229 17.1578 32.3421C17.2426 32.0711 17.4243 31.8075 17.2652 31.5374C17.4282 31.3361 17.6596 31.113 17.5572 30.8441C17.6325 30.482 17.7545 30.3302 17.9947 29.9544C17.9864 29.8067 18.052 29.6541 17.9527 29.5159C17.8923 29.4412 18.118 29.3889 18.1431 29.3441C18.1667 29.2992 18.3028 29.0131 18.3101 28.972C18.3359 28.8136 18.2929 28.6759 18.2437 28.5784C18.2486 28.5787 18.3976 28.5875 18.442 28.6107C18.5257 28.3967 18.6425 28.2281 18.6695 28.013C18.9056 27.5631 19.0937 26.9585 18.8218 26.6292C18.7565 26.4802 18.5995 26.3407 18.4302 26.2806ZM26.8951 27.971C26.5406 27.7994 26.2054 27.8099 25.8668 27.9905C25.6944 28.1007 25.6526 28.1513 25.6011 28.1673C25.5499 28.1831 25.4928 28.1817 25.3521 28.1507C25.2536 28.2564 25.1788 28.2616 25.1617 28.2669C24.8801 28.4487 24.6837 28.6041 24.5357 28.9134C24.5183 28.9188 24.4668 28.9357 24.3922 28.9964C24.3116 29.0971 24.5338 29.272 24.1978 29.3392L23.9781 29.5394C23.9073 29.6743 23.8345 29.8659 23.7691 30.0179C23.6984 30.1525 23.6293 30.2312 23.6109 30.2933C23.5691 30.4002 23.5438 30.5023 23.4967 30.5921C23.4076 30.7891 23.3298 30.9644 23.2408 31.1614C23.2728 31.2641 23.2838 31.299 23.317 31.345C23.3435 31.43 23.3275 31.379 23.1734 31.4271C23.1294 31.6474 23.1238 31.631 23.1109 31.7103L23.2945 31.9349C23.2922 31.9356 23.2761 31.9407 23.2603 31.9456L23.1676 32.012C23.1508 32.0173 23.1338 32.0226 23.1334 32.0228C23.1385 32.04 23.1323 32.0794 23.1207 32.1019L23.1119 32.2552C23.0979 32.3912 23.1009 32.5229 23.1383 32.6429C23.1703 32.7454 23.2197 32.8428 23.3199 32.9241C23.3103 33.134 23.4621 33.2572 23.5338 33.3665C23.8281 33.707 24.0577 33.5984 24.6724 33.8206C24.9392 33.8315 25.2117 33.8592 25.4517 33.7845C25.623 33.731 25.6828 33.6184 25.776 33.4954C25.7987 33.5074 25.8657 33.5427 25.9498 33.5726C26.0921 33.547 26.2812 33.4883 26.397 33.3773C26.6413 33.3764 26.7095 33.1104 26.8316 32.9593C26.8391 32.9735 27.0714 32.7401 27.0806 32.7308L27.2545 32.8655C27.366 32.6803 27.6481 32.4974 27.7994 32.3187C27.9297 32.3154 27.9707 32.2653 28.0679 32.2161L28.2711 32.0218C28.3475 31.6029 29.0513 31.6273 29.1412 30.8284C29.1049 30.6515 29.0671 30.5307 28.8345 30.5091C28.4917 30.616 28.1939 30.7471 28.0758 30.972C27.7382 31.0962 27.452 31.4485 27.2086 31.6937C27.1651 31.8573 26.8408 31.9029 26.7037 31.9456C26.5449 32.2202 26.3531 32.1489 26.1334 32.3489C26.0479 32.3759 26.0046 32.5391 25.9468 32.595L25.7652 32.5579C25.7877 32.5697 25.7985 32.6034 25.4791 32.6653C25.3078 32.7187 25.1374 32.7159 25.0152 32.8665C24.964 32.8823 24.9642 32.8263 24.8218 32.8519C24.6292 32.8365 24.5539 32.5966 24.5142 32.5901L24.4976 32.595C24.4537 32.5147 24.3707 32.4274 24.5162 32.2318C24.3706 32.1267 24.3828 32.0479 24.3326 32.0071C24.4484 31.8958 24.5323 31.6806 24.4908 31.4866L24.4937 31.3167C24.4628 31.1571 24.8294 31.0048 24.7681 30.6859C24.8378 30.6078 24.8169 30.5384 24.8638 30.4485C24.8867 30.4036 24.7598 30.2937 24.7818 30.2484C24.7936 30.2259 24.8116 30.2203 24.8404 30.1927L25.0416 30.054C25.0686 30.028 25.0958 30.0016 25.0992 29.9984C25.1528 29.869 25.2521 29.763 25.3111 29.6507C25.3871 29.5331 25.563 29.4961 25.5777 29.3607C25.5864 29.2078 25.7184 29.1471 25.7935 29.0862C25.8223 29.0586 25.8515 29.0303 25.8687 29.0247L26.0074 28.9251C26.0245 28.9196 26.0539 28.8922 26.0826 28.8646C26.1747 28.7982 26.3178 28.716 26.4302 28.7747L26.5914 28.9876C26.6222 29.1473 26.5605 29.3742 26.5015 29.4866C26.4134 29.6265 26.2359 29.7202 26.2828 29.931C26.1271 30.0364 25.7491 30.5109 25.7281 30.6868L25.5601 30.8714C25.4263 31.0448 25.45 31.2448 25.5601 31.4173C25.7045 31.5789 25.8581 31.5873 25.9781 31.5501C26.0637 31.5234 26.1448 31.4797 26.2027 31.4241C26.249 31.0901 26.434 31.2006 26.5103 31.0833L26.8131 30.7259C26.843 30.6415 27.0079 30.3278 27.0377 30.2982L27.2554 30.2112C27.3366 30.1108 27.3489 30.0307 27.3287 29.9056C27.4025 29.9014 27.4666 29.863 27.5416 29.8021C27.5653 29.7565 27.6622 29.4634 27.7222 29.2943C27.7362 29.1583 27.7108 29.0156 27.7301 28.8968C27.7666 28.7725 27.791 28.6703 27.6744 28.5374C27.6423 28.4346 27.4938 28.4429 27.4381 28.3851C27.3548 28.2981 27.3581 28.1275 27.2564 28.1028C27.1215 28.0321 26.985 28.0182 26.8951 27.971ZM32.2691 23.0784C31.7859 22.7962 31.2343 23.3821 31.1236 23.8118C31.0404 24.0258 31.1554 24.2161 31.2838 24.3265C31.2765 24.4236 31.322 24.6909 31.2418 24.7347C31.2282 24.8151 31.0868 25.1408 31.1412 25.2552C31.1455 25.3291 31.1824 25.4492 31.2379 25.5071C31.1752 25.5449 31.1873 25.4665 31.0269 25.554C30.9957 25.6954 30.9527 25.86 30.8873 26.012C30.6485 26.0301 30.5151 26.1463 30.4283 26.2298C30.3526 26.2908 30.0165 26.3588 29.691 26.4603C29.6398 26.4766 29.6317 26.5726 29.5621 26.6507L29.3306 26.5726C29.2568 26.5768 29.1829 26.5811 29.0855 26.6302C28.8627 26.6999 28.634 27.0528 28.8433 27.3636C28.975 27.6047 29.1885 27.7455 29.6929 27.7952C29.7667 27.791 29.8407 27.7866 29.9039 27.7484C30.1534 27.7646 30.3095 27.6594 30.4595 27.5374C30.4939 27.5267 30.5445 27.5677 30.5445 27.5677C30.4321 27.8095 30.4491 28.0488 30.4351 28.1849C30.403 28.3829 30.4874 28.47 30.5933 28.5687C30.5969 28.6423 30.3924 28.6506 30.3795 28.7298C30.3129 28.9393 30.2423 29.619 30.2398 30.0335C30.2378 30.147 30.3268 30.2519 30.4049 30.3216C30.3182 30.4049 30.2313 30.4886 30.2183 30.5677C30.1816 30.993 30.1619 31.4135 30.273 31.8304C30.3104 31.9504 30.3538 32.0883 30.4136 32.22C30.7117 32.6906 31.688 32.0851 31.0972 31.5169C31.0931 31.4431 31.1643 31.3081 31.1998 31.2405C31.2888 31.0435 31.319 30.9584 31.2496 30.7357C31.1641 30.4613 31.2565 30.3941 31.3756 30.1126C31.3254 30.0719 31.3617 29.9479 31.3853 29.9026C31.5321 29.65 31.5268 29.3316 31.4586 29.0521C31.7491 28.717 31.5587 28.5873 31.6988 28.3743C31.886 28.0718 31.6985 27.8865 31.733 27.8187C31.7919 27.7063 31.8619 27.6278 31.8814 27.5091C32.1222 27.3775 32.0233 27.1821 31.9302 27.0042C32.0708 26.7911 32.163 26.7813 32.3697 26.6605C32.6144 26.6028 32.6851 26.4678 32.6929 26.3714C32.8793 26.4262 33.0117 26.3654 33.1392 26.2318C33.1986 26.1198 33.5447 26.03 33.6031 26.0306C33.5181 25.7567 33.8355 25.8078 33.858 25.8196C34.0571 25.7952 34.2566 25.7706 34.3853 25.5804C34.7614 25.5195 34.9078 25.3234 35.3385 25.3773C35.6717 25.1792 35.9021 24.7126 35.3551 24.5257C34.6574 24.4609 34.3439 24.4823 33.7242 24.7884C33.6992 24.8899 33.5792 24.9286 33.5621 24.9339C33.2881 25.0189 33.1086 24.8678 32.9156 25.1536C32.8068 25.1689 32.5091 25.2988 32.4117 25.348C32.4376 25.1895 32.5215 24.9749 32.6383 24.8069L32.5455 24.6292C32.5884 24.4656 32.6539 24.3133 32.7193 24.1614L32.7242 23.9339L32.7945 23.7991C32.7475 23.5879 32.5489 23.01 32.2691 23.0784ZM42.2564 22.7513C42.0421 22.6675 41.9036 22.767 41.7427 22.8548C41.7025 22.905 41.7059 22.9784 41.6656 23.0286L41.5133 22.9632C41.0761 22.949 40.8875 23.253 40.5113 23.3138C40.2929 23.457 40.0911 23.5953 39.8726 23.7386C39.7807 23.805 39.7382 23.9122 39.7242 24.0482C39.5989 24.0682 39.4574 24.0376 39.2496 24.2151C38.9377 24.4815 38.715 24.4948 38.5133 24.9339C38.3911 25.0841 38.2264 25.0987 38.1822 25.3187C37.9113 25.5349 38.0942 25.7609 37.9312 25.9622C38.0135 26.4067 38.2073 26.6661 38.5103 26.8538C38.6977 26.852 38.9268 27.0434 39.1324 26.9798C39.2696 26.937 39.2807 26.6707 39.5367 26.9485L40.108 26.7894C40.2428 26.8601 40.431 26.8578 40.5416 26.7298C40.7603 26.5864 41.0828 26.6541 41.3111 26.6019C41.3403 26.574 41.4323 26.5077 41.4615 26.4798C41.6242 26.5795 41.635 26.6141 41.8052 26.6175L41.8033 26.7318C41.7328 26.8663 41.7422 26.9006 41.6715 27.0355L41.5562 27.1468L41.2838 27.4202C41.2728 27.4436 41.3262 27.5573 41.3316 27.5745L41.0806 27.6155C40.9891 27.9255 40.7607 27.9786 40.5133 28.1497C40.1335 28.6815 39.7148 28.6062 39.3287 29.178C39.2817 29.2677 39.2626 29.3304 39.2261 29.4544L39.2174 29.6077C39.318 29.9898 39.6143 29.9731 39.9195 30.0472C40.2529 29.8493 40.772 29.7056 40.8092 29.2806C40.9807 29.2271 40.8704 29.1114 41.2056 29.1009C41.5606 28.6705 41.9331 28.478 42.272 27.9964L42.2691 27.8655C42.3889 27.8282 42.4985 27.7565 42.5406 27.6497C42.7411 27.5684 42.8722 27.2638 42.7789 27.387C42.8708 27.0214 42.854 27.0811 42.8707 27.0765C43.681 26.5979 42.8645 25.6095 42.2183 25.5286C41.957 25.5347 41.7426 25.4519 41.4683 25.5374C41.2465 25.5501 41.0468 25.5741 40.482 25.6937C40.3395 25.7193 40.185 25.7677 40.0426 25.7933C39.8822 25.8809 39.9438 25.8989 39.7232 25.8548C39.6139 25.9263 39.4656 25.9353 39.3189 25.887C39.3543 25.8197 39.3505 25.7451 39.3345 25.6937C39.4842 25.5718 39.5664 25.4144 39.5924 25.2562C39.6266 25.2455 39.6787 25.2292 39.7525 25.2249C40.0268 25.1394 40.0872 24.9697 40.2222 24.7396C40.263 24.6893 40.4434 24.7835 40.6812 24.5218C40.7052 24.5327 41.3517 24.1999 41.4449 24.1331C41.819 23.8848 41.8847 24.0337 41.9468 24.0521C42.0281 24.2523 42.1213 24.4302 42.3931 24.4583C42.7788 24.4886 43.0923 24.1649 43.1773 23.8939C43.1744 23.4621 43.0538 23.1985 42.6051 22.9056C42.4991 22.807 42.3988 22.7258 42.2564 22.7513ZM81.6597 24.929C81.6685 24.9325 89.171 27.9097 81.6597 24.93L81.6578 24.929H81.6597ZM55.0797 14.765C54.5339 15.0667 53.6776 15.2206 53.2818 15.7015C52.9326 15.8485 52.6265 16.376 52.275 16.636C52.1702 16.7814 52.1738 16.8557 52.1822 17.0032C52.192 17.0374 52.0499 17.0635 51.942 17.0784C51.7845 17.2966 51.7135 17.4319 51.4801 17.4671C51.257 17.8376 51.1656 18.149 50.9244 18.2806C50.6885 18.4299 50.3567 19.1161 50.2955 19.3421C49.9216 19.5904 49.9841 19.8533 49.8414 20.18C49.5664 20.3224 49.7131 20.6151 49.4761 20.8206C49.4612 21.013 49.5462 21.0436 49.5943 21.1976L49.3531 21.3294C49.2352 21.5544 49.2058 21.884 49.1822 21.929C48.9667 22.504 49.0298 23.0111 49.0347 23.6302C49.1417 23.672 49.192 23.7132 49.2135 23.7816C49.2347 23.8501 49.2108 23.9524 49.1744 24.0765C49.2385 24.2822 49.3575 24.5463 49.3961 24.6097C49.5864 25.0393 49.6182 25.1988 50.1138 25.4017C50.2682 25.3536 50.2688 25.3538 50.3511 25.4974C50.4774 25.7212 50.6558 25.6292 50.9 25.6282C51.156 25.905 51.598 25.6365 51.7886 25.765C51.8862 25.7158 51.9366 25.512 52.109 25.4017C52.1604 25.3858 52.2202 25.5173 52.3658 25.6224C52.6484 25.384 52.7089 25.5148 52.7603 25.4993C52.9607 25.4181 53.1828 25.405 53.2945 25.22C53.3919 25.1709 53.4842 25.1042 53.5592 25.0433C53.8483 25.066 53.9049 24.8231 54.0484 24.7405C54.2274 24.5907 54.351 24.3825 54.5406 24.2669C55.0967 24.3005 55.4764 23.5238 55.8795 23.2474C55.8716 23.1102 55.8656 23.0852 55.8648 23.0823L55.8052 22.9505C55.9054 22.9193 56.1171 22.9609 56.1285 22.9632C56.3589 22.7973 56.5187 22.5215 56.6763 22.303C56.7997 22.0953 57.0133 21.9339 57.1988 21.7444C57.1354 22.084 57.1574 22.3978 57.0093 22.7073C57.0442 22.941 56.8273 23.2722 56.8453 23.511L57.0875 23.6234L56.8531 23.7161C56.7052 23.7252 56.4526 24.4243 56.4439 24.5775C56.4806 24.6977 56.2606 24.9545 56.3297 25.1771C56.41 25.4341 56.8059 25.5559 57.0289 25.4866C57.183 25.4385 57.2989 25.3264 57.3922 25.2034C57.5139 24.8081 58.1147 24.2633 57.7994 23.8538C57.9871 23.5508 57.9225 23.645 58.0533 23.3411C58.1057 23.2684 58.1305 23.1668 58.1275 23.0364L58.1461 22.9739C58.1418 22.9002 57.9238 22.7994 57.9683 22.7659C57.8807 22.6053 58.2373 22.6063 58.2105 22.5775C58.139 22.167 58.5667 22.0896 58.4976 21.5657C58.2784 21.1638 58.7592 20.9565 58.6881 20.5462C58.7806 20.1787 59.077 19.5594 58.9029 19.181C58.7991 18.9687 58.6594 18.8241 58.4322 18.8196C58.3197 18.7606 58.2003 18.7417 58.0631 18.7845C57.7033 18.8972 57.3703 19.3955 57.3912 19.765C57.3631 20.0369 57.2641 20.1439 57.0787 20.3333C56.6668 20.7628 56.0753 21.3421 55.7535 21.8187C55.3357 21.9867 55.2289 22.4901 54.8648 22.5286C54.7782 22.6124 54.7509 22.8282 54.7369 22.9642C54.6382 23.0696 54.4814 22.931 54.3775 23.0198C54.0828 23.2809 53.8223 23.4751 53.4761 23.7523C53.4086 24.0172 53.3679 24.0674 53.1539 23.9837C52.6716 24.2469 52.2939 24.365 51.9273 24.5169C51.7056 24.5296 51.5049 24.611 51.3228 24.6302C51.1986 24.5937 50.8748 24.5815 50.8209 24.4105C50.8048 24.359 50.7886 24.307 50.5885 24.0872C50.5746 23.9222 50.4444 23.6241 50.4049 23.3167C50.3868 23.0779 50.4543 22.8114 50.4224 22.7083L50.2115 22.4544C50.3048 22.3313 50.5423 22.3697 50.4635 22.056C50.4635 22.056 50.5765 21.8139 50.5533 21.5579C50.9147 21.0879 50.9625 20.6964 51.2603 20.265C51.2016 20.0766 51.0804 19.9262 51.2164 19.8831C51.2678 19.8671 51.3647 19.875 51.5006 19.889C51.595 19.7091 51.7995 19.4567 51.8834 19.2425C51.937 19.113 51.9258 19.0777 51.9302 18.8509C52.1627 18.8725 52.1819 18.8103 52.3619 18.6038C52.4434 18.5034 52.6095 18.376 52.5836 18.2903L52.776 18.0609C52.9771 17.923 52.9606 17.9275 52.981 17.7523C53.1428 17.608 53.3546 17.5036 53.4332 17.2728C53.624 17.1004 54.0848 16.7679 54.1636 16.5364C54.2322 16.5151 54.3356 16.4831 54.4 16.388C54.5895 16.2726 54.6937 16.1837 54.8306 16.1409C54.9163 16.1142 55.0247 16.0986 55.1607 16.1126C55.5274 15.9607 55.6381 16.1337 55.7301 16.3685L55.7125 16.3743C55.6887 16.7199 55.6725 16.9699 55.7525 17.2269C55.8006 17.3811 55.8884 17.5426 56.0211 17.7269C56.2022 17.7645 56.2703 17.8001 56.4342 17.8431C56.5948 17.7554 56.7214 17.6783 56.8873 17.6077C56.8906 17.4377 56.9145 17.3917 56.9498 17.3245C57.0678 17.0996 57.2595 16.8701 57.1002 16.5999C57.2696 16.359 57.2423 16.0285 57.1676 15.7884C56.976 15.7165 56.9028 15.6636 56.8707 15.5609C56.8494 15.4923 56.8401 15.4006 56.8541 15.265L56.4547 15.0696C56.3687 14.7955 55.2798 14.7405 55.0797 14.765ZM38.1558 19.8694C38.6129 19.1625 37.508 18.7546 36.9908 19.3294C36.8952 19.5659 36.721 19.7335 36.6373 19.9476C36.4815 20.3535 36.1966 20.7068 36.1256 21.1429C35.9055 21.6441 35.6135 22.0366 35.6324 22.5198C35.6292 22.69 35.6825 22.8621 35.7808 23.0569C35.995 23.1407 36.2495 23.2296 36.4361 22.9837L36.5054 22.9056C36.5933 22.7654 36.6934 22.6022 36.6627 22.4427C36.66 22.3121 36.883 22.1855 36.9166 21.931C36.9702 21.8014 36.9432 21.715 36.9058 21.595C37.0364 21.5919 37.1003 21.5535 37.0963 21.4798C37.2033 21.4095 37.3413 21.1492 37.3472 21.138C37.3557 21.1425 37.3697 21.1497 37.3697 21.1497C37.5315 21.0053 37.6539 20.854 37.5386 20.6644L37.5513 20.5853C37.712 20.4976 37.7818 20.4187 37.8814 20.2562L37.7926 20.1526C37.9189 20.0757 38.0071 19.9348 38.1558 19.8694ZM64.6217 16.6263C64.339 16.5642 64.3823 17.2461 64.19 16.6292C64.0197 16.6259 63.8713 16.6346 63.6314 16.7093C63.3915 16.7841 63.3908 16.7841 63.1412 16.7679L63.0709 16.9036C62.8437 16.8991 62.5568 16.7052 62.2965 16.6546C61.8189 16.6909 61.6244 17.0339 61.3629 17.3411L61.3892 17.4271C61.1772 17.5312 61.0556 17.9265 60.9097 18.1224C60.7468 18.3236 60.6185 18.458 60.523 18.6946C60.5552 18.7975 60.6828 18.9646 60.6304 19.0374C60.5424 19.1773 60.3206 19.1907 60.317 19.3607C60.1671 19.4827 60.1688 19.6709 60.1666 19.7845C60.1739 19.9886 60.1857 19.9669 60.1138 20.1585C60.0479 20.3104 59.7903 20.4479 59.9547 20.7347C59.8282 21.1128 60.0582 21.5494 60.1705 21.9095C60.7598 21.9892 60.8747 22.5373 61.6461 22.2972C61.7435 22.248 61.896 22.3128 61.983 22.2298C62.2046 22.2171 62.2018 22.0858 62.3131 21.9007C62.4083 21.965 62.5344 21.9444 62.6373 21.9124C62.7914 21.8643 62.9524 21.7765 63.067 21.722C63.1495 21.5648 63.3051 21.4598 63.3472 21.3528C63.5977 21.3123 63.7016 21.2225 63.7906 21.0257C63.9673 20.9894 64.0786 20.8612 64.189 20.7327C64.2757 20.6494 64.2878 20.6269 64.4469 20.596C64.4727 20.4376 64.4978 20.3349 64.5172 20.2161C64.6992 20.197 64.8325 20.0799 64.9429 19.9515C65.1386 19.7966 65.1931 19.6671 65.2115 19.6048C65.4111 19.5236 65.3813 19.3075 65.3717 19.2161C65.3717 19.2161 65.6159 18.9704 65.6881 18.7786C65.8201 18.4176 65.953 17.9994 65.8785 17.4583C65.7629 17.2685 65.6534 17.0393 65.3941 16.9319C65.2518 16.6564 64.9046 16.6887 64.6217 16.6263ZM63.8355 17.6058C63.9063 17.4713 64.1178 17.6678 64.2261 17.6536C64.3725 17.7018 64.5077 17.7722 64.5426 17.762C64.518 17.8636 64.5106 17.96 64.5992 18.0638C64.5057 18.4878 64.4933 18.5113 64.2916 18.9505C63.9993 19.0984 63.7987 19.4805 63.8209 19.7933C63.6837 19.836 63.518 19.8504 63.4312 19.9339C63.2235 20.1116 63.0931 20.3593 62.7965 20.4329C62.6678 20.6232 62.5343 20.7398 62.3736 20.8275C62.2833 21.0809 62.0866 20.9931 61.9312 21.098C61.7811 21.2197 61.5526 21.2722 61.3599 21.2571C61.3043 21.1993 61.2715 21.0958 61.233 21.0325C61.2576 20.931 61.2041 20.8163 61.189 20.7083C61.2781 20.5112 61.2903 20.4311 61.3023 20.1077C61.3152 20.0285 61.3625 19.938 61.3531 19.847C61.4045 19.831 61.4428 19.6508 61.5338 19.6409C61.5266 19.1352 61.8003 19.3494 61.8072 19.0091C61.8938 18.9254 61.8328 18.6071 61.9693 18.5638C62.0036 18.5531 62.0434 18.5596 62.1109 18.595C62.1817 18.4602 62.2687 18.3761 62.4185 18.2542C62.4573 18.0164 62.7022 18.0153 62.9049 17.8206C63.0538 17.7555 63.2064 17.8207 63.4078 17.6829C63.5044 17.6906 63.7752 17.7744 63.8355 17.6058ZM68.6637 19.4515C68.2491 19.1478 67.1584 19.3933 67.234 20.179C67.4662 20.5016 67.6493 20.727 67.9801 20.9437L68.7154 20.8275C68.8193 20.7387 68.7246 20.6736 68.8004 20.556C68.8635 20.5175 69.0565 20.5323 69.0816 20.431C69.1579 20.0123 68.9141 19.712 68.6637 19.4515ZM69.8316 11.4456C69.9601 11.5878 70.0086 11.751 70.0318 11.9485C69.8923 12.4054 69.8214 12.5412 69.7506 12.6761L69.8609 12.848C69.6809 13.0545 69.5179 13.2565 69.6031 13.5306C69.4821 13.6248 69.4063 13.7435 69.3023 13.8323C69.424 13.9819 69.4638 13.9889 69.3697 14.1683C69.3566 14.2479 69.2723 14.4621 69.2594 14.5413C69.2294 14.6258 69.2161 14.7058 69.1861 14.7903C69.1678 14.8658 69.1456 14.9416 69.1246 15.0189C68.7167 14.6979 68.4895 14.5182 68.4879 14.5169C68.4965 14.4949 68.9445 13.3447 69.8316 11.4456Z" fill="white"/>
</svg>
