<svg xmlns="http://www.w3.org/2000/svg" xmlns:xlink="http://www.w3.org/1999/xlink" width="191" height="50" viewBox="0 0 191 50">
    <defs>
        <circle id="a" cx="27.59" cy="19.04" r="18.51"/>
    </defs>
    <g fill="none" fill-rule="evenodd">
        <path fill="#0F5186" fill-rule="nonzero" d="M24.59 1A24 24 0 0 0 4.41 38a7.2 7.2 0 0 0 .41 5.14c2 4 7.37 5 8 5.14h.1c1.36.168 2.73.248 4.1.24.75 0 1.57 0 2.43-.09a23.72 23.72 0 0 0 5.16.56c13.255 0 24-10.745 24-24s-10.745-24-24-24l-.02.01z"/>
        <g transform="translate(-3 6)">
            <mask id="b" fill="#fff">
                <use xlink:href="#a"/>
            </mask>
            <use fill="#DEE3E9" fill-rule="nonzero" xlink:href="#a"/>
            <circle cx="33.8" cy="11.26" r="6.81" fill="#E55927" fill-rule="nonzero" mask="url(#b)"/>
            <path fill="#7E8FA8" fill-rule="nonzero" d="M23.5 8.39h-4A43.84 43.84 0 0 1 .88 21v16.53H48v-15A43.79 43.79 0 0 1 23.5 8.39z" mask="url(#b)"/>
            <path fill="#FFF" fill-rule="nonzero" d="M23.5 8.39h-4a44.52 44.52 0 0 1-6.2 5.84c.352.172.66.421.9.73A1.65 1.65 0 0 0 17 15a1.84 1.84 0 0 1 3.12 0 1.65 1.65 0 0 0 2.82 0 1.84 1.84 0 0 1 3.12 0 1.65 1.65 0 0 0 2.82 0 2.56 2.56 0 0 1 .85-.71 44.3 44.3 0 0 1-6.23-5.9z" mask="url(#b)"/>
            <path fill="#627590" fill-rule="nonzero" d="M19.48 8.39A43.84 43.84 0 0 1 .88 21v13.22A52.47 52.47 0 0 0 21.69 8.39h-2.21z" mask="url(#b)"/>
            <path fill="#BCC3CD" fill-rule="nonzero" d="M19.48 8.39l-.42.47-.14.15c-.09.11-.19.22-.29.32a1.29 1.29 0 0 1-.16.17l-.31.33-.21.22c-.11.11-.21.22-.32.32l-.23.24-.19.19-.27.26-.13.12c-.34.33-.69.66-1 1-.79.71-1.6 1.39-2.44 2 .352.172.66.421.9.73A1.65 1.65 0 0 0 17 15a2 2 0 0 1 1.56-.86 1.6 1.6 0 0 1 .56.09 51.86 51.86 0 0 0 2.57-5.8l-2.21-.04z" mask="url(#b)"/>
        </g>
        <path fill="#FFF" fill-rule="nonzero" d="M8.08 37.34c-3.43 6.41 5.24 7.86 5.24 7.86a30.74 30.74 0 0 0 11.74-.9c4.65-1.49 14.31-10.8 17.16-13.62.47-1.49.752-3.031.84-4.59-1.18.08-18.68 1.26-22.7 1.95s-8.84 2.89-12.28 9.3z"/>
        <path fill="#2B4973" fill-rule="nonzero" d="M27 37.2c.08 2.16-.44 3.64-1.35 4.35l16.8-11.67c.09-.34.18-.68.25-1L27 36.43v.77zM12.68 35a1.87 1.87 0 0 1-.68-2.55c-1.86 1.83-2.39 3.48-1.11 4.25 2 1.19 7.42-.13 12.2-2.93l.46-.28C19 35.43 14.54 36.11 12.68 35z"/>
        <path fill="#FFF" fill-rule="nonzero" d="M24.51 45.49C13.226 45.468 4.093 36.31 4.1 25.027c.007-11.284 9.153-20.43 20.437-20.437C35.82 4.583 44.977 13.716 45 25a20.47 20.47 0 0 1-20.49 20.49zm0-40.28A19.83 19.83 0 1 0 44.34 25c-.033-10.932-8.898-19.779-19.83-19.79z"/>
        <path fill="#5B81A4" fill-rule="nonzero" d="M120.73 43h-1.23l-7.44-7.18V43h-2.46V31.46h1.21l7.46 7.18v-7.18h2.46zM125.5 40.84L124.44 43h-2.65l5.85-11.59H129L134.87 43h-2.67l-1.06-2.2-5.64.04zm4.84-1.84l-2-4.38-2 4.38h4zM140 43.16h-1.26l-5.55-11.7h2.71l3.47 7.79 3.43-7.79h2.76zM149.18 31.46V43h-2.53V31.46zM150.41 33.48v-2h10.44v2h-4V43h-2.52v-9.52zM164.65 31.46V43h-2.54V31.46zM179.72 43h-2.46v-6.35l-3.45 4.45h-.93l-3.43-4.43V43H167V31.46h1.24l5.12 6.67 5.09-6.67h1.28zM191 31.46v2h-6.49v2.74h5.76v1.94h-5.76V41H191v2h-9V31.46zM96.58 42.61V43h-1.44v-8h1.44v2.64a3 3 0 0 1 1.71-.53 2.71 2.71 0 0 1 2.83 3 2.72 2.72 0 0 1-2.86 3 2.5 2.5 0 0 1-1.68-.5zm3.07-2.47A1.54 1.54 0 0 0 98 38.41a2 2 0 0 0-1.42.55v2.37a2 2 0 0 0 1.45.54 1.57 1.57 0 0 0 1.62-1.73z"/>
        <path fill="#5B81A4" fill-rule="nonzero" d="M105.23 43.1c-.72 1.87-1.76 2-2.7 2a4.37 4.37 0 0 1-1.18-.13v-1.23a3.82 3.82 0 0 0 1.09.15A1.46 1.46 0 0 0 104 42.8h-.49l-2.43-5.55h1.62l1.63 4.25h.09l1.58-4.25h1.56l-2.33 5.85z"/>
        <path fill="#0F5186" fill-rule="nonzero" d="M53 20.15h3c.11 2.26 1.45 3 2.9 3 1.69 0 2.71-.9 2.71-3.12V9.52h3V20c0 4.1-1.81 5.95-5.63 5.95-3.44-.04-5.83-2.15-5.98-5.8zM66.75 19.81c0-3.69 2.18-6 5.68-6a5.61 5.61 0 0 1 3.41 1V14h2.91v11.61h-2.91v-.85a5 5 0 0 1-3.35 1.09c-3.6 0-5.74-2.37-5.74-6.04zm9.16 2.39v-4.74a4 4 0 0 0-2.86-1.09 3.11 3.11 0 0 0-3.33 3.44 3.13 3.13 0 0 0 3.35 3.46 4 4 0 0 0 2.84-1.07zM84.31 14v.79a5.84 5.84 0 0 1 3.41-1.06c3.54 0 5.68 2.32 5.68 6.06 0 3.74-2.12 6.06-5.74 6.06a5 5 0 0 1-3.35-1.11v4.59h-2.89V14h2.89zm6.14 5.79c0-2.22-1.24-3.46-3.35-3.46a3.89 3.89 0 0 0-2.84 1.11v4.76a3.93 3.93 0 0 0 2.91 1.09 3.15 3.15 0 0 0 3.28-3.48v-.02zM94.92 19.81c0-3.69 2.18-6 5.68-6a5.66 5.66 0 0 1 3.42 1V14h2.9v11.61H104v-.85a5 5 0 0 1-3.35 1.09c-3.59 0-5.73-2.37-5.73-6.04zm9.16 2.39v-4.74a4 4 0 0 0-2.86-1.09 3.11 3.11 0 0 0-3.33 3.44 3.13 3.13 0 0 0 3.35 3.46 4 4 0 0 0 2.84-1.07zM112.41 14v.86a8.66 8.66 0 0 1 4-1.11c3 0 4.1 1.3 4.1 4.91v6.93h-2.91v-6.47c0-2-.68-2.73-2.26-2.73a4.87 4.87 0 0 0-2.86.92v8.3h-2.88V14h2.81zM126.7 12.15V9.52h12.66v2.63h-4.81v13.46h-3.05V12.15zM142.32 14v1.65a4.3 4.3 0 0 1 3.54-1.9 2.56 2.56 0 0 1 .79.08v3.23a5 5 0 0 0-1.38-.22 2.85 2.85 0 0 0-3 3.14v5.61h-2.87V14h2.92zM147.75 19.81c0-3.69 2.18-6 5.68-6a5.61 5.61 0 0 1 3.41 1V14h2.91v11.61h-2.91v-.85a5 5 0 0 1-3.35 1.09c-3.6 0-5.74-2.37-5.74-6.04zm9.16 2.39v-4.74a4 4 0 0 0-2.86-1.09 3.11 3.11 0 0 0-3.33 3.44 3.13 3.13 0 0 0 3.35 3.46 4 4 0 0 0 2.84-1.07zM168.15 25.72h-1.47L161.15 14h3.26l3.08 7.2 3.09-7.2h3.2zM185.9 20.7h-9a3.14 3.14 0 0 0 3.42 2.69 4.22 4.22 0 0 0 3.33-1.47l1.83 1.56c-1 1.45-2.73 2.37-5.38 2.37-3.86 0-6.15-2.37-6.15-6a5.69 5.69 0 0 1 6-6c4 0 5.94 2.52 5.94 6.08.03.2.01.77.01.77zm-9-2.11h6.11a2.78 2.78 0 0 0-3.01-2.41 2.88 2.88 0 0 0-3 2.41h-.1zM191 9.52v16.09h-3V9.52z"/>
        <path fill="#0F5186" fill-rule="nonzero" d="M53 20.15h3c.11 2.26 1.45 3 2.9 3 1.69 0 2.71-.9 2.71-3.12V9.52h3V20c0 4.1-1.81 5.95-5.63 5.95-3.44-.04-5.83-2.15-5.98-5.8zM66.75 19.81c0-3.69 2.18-6 5.68-6a5.61 5.61 0 0 1 3.41 1V14h2.91v11.61h-2.91v-.85a5 5 0 0 1-3.35 1.09c-3.6 0-5.74-2.37-5.74-6.04zm9.16 2.39v-4.74a4 4 0 0 0-2.86-1.09 3.11 3.11 0 0 0-3.33 3.44 3.13 3.13 0 0 0 3.35 3.46 4 4 0 0 0 2.84-1.07zM84.31 14v.79a5.84 5.84 0 0 1 3.41-1.06c3.54 0 5.68 2.32 5.68 6.06 0 3.74-2.12 6.06-5.74 6.06a5 5 0 0 1-3.35-1.11v4.59h-2.89V14h2.89zm6.14 5.79c0-2.22-1.24-3.46-3.35-3.46a3.89 3.89 0 0 0-2.84 1.11v4.76a3.93 3.93 0 0 0 2.91 1.09 3.15 3.15 0 0 0 3.28-3.48v-.02zM94.92 19.81c0-3.69 2.18-6 5.68-6a5.66 5.66 0 0 1 3.42 1V14h2.9v11.61H104v-.85a5 5 0 0 1-3.35 1.09c-3.59 0-5.73-2.37-5.73-6.04zm9.16 2.39v-4.74a4 4 0 0 0-2.86-1.09 3.11 3.11 0 0 0-3.33 3.44 3.13 3.13 0 0 0 3.35 3.46 4 4 0 0 0 2.84-1.07zM112.41 14v.86a8.66 8.66 0 0 1 4-1.11c3 0 4.1 1.3 4.1 4.91v6.93h-2.91v-6.47c0-2-.68-2.73-2.26-2.73a4.87 4.87 0 0 0-2.86.92v8.3h-2.88V14h2.81zM126.7 12.15V9.52h12.66v2.63h-4.81v13.46h-3.05V12.15zM142.32 14v1.65a4.3 4.3 0 0 1 3.54-1.9 2.56 2.56 0 0 1 .79.08v3.23a5 5 0 0 0-1.38-.22 2.85 2.85 0 0 0-3 3.14v5.61h-2.87V14h2.92zM147.75 19.81c0-3.69 2.18-6 5.68-6a5.61 5.61 0 0 1 3.41 1V14h2.91v11.61h-2.91v-.85a5 5 0 0 1-3.35 1.09c-3.6 0-5.74-2.37-5.74-6.04zm9.16 2.39v-4.74a4 4 0 0 0-2.86-1.09 3.11 3.11 0 0 0-3.33 3.44 3.13 3.13 0 0 0 3.35 3.46 4 4 0 0 0 2.84-1.07zM168.15 25.72h-1.47L161.15 14h3.26l3.08 7.2 3.09-7.2h3.2zM185.9 20.7h-9a3.14 3.14 0 0 0 3.42 2.69 4.22 4.22 0 0 0 3.33-1.47l1.83 1.56c-1 1.45-2.73 2.37-5.38 2.37-3.86 0-6.15-2.37-6.15-6a5.69 5.69 0 0 1 6-6c4 0 5.94 2.52 5.94 6.08.03.2.01.77.01.77zm-9-2.11h6.11a2.78 2.78 0 0 0-3.01-2.41 2.88 2.88 0 0 0-3 2.41h-.1zM191 9.52v16.09h-3V9.52z"/>
    </g>
</svg>
